<?xml version="1.0" encoding="UTF-8"?>
<svg width="24" height="24" viewBox="0 0 24 24" fill="none" xmlns="http://www.w3.org/2000/svg">
  <path fill-rule="evenodd" clip-rule="evenodd" d="M12 2C6.48 2 2 5.88 2 10.65c0 4.16 3.69 7.65 8.67 8.31.34.07.8.22.92.5.11.26.07.65.03.91l-.13.87c-.04.25-.2.98.86.54 1.05-.45 5.69-3.35 7.77-5.73C21.31 13.7 22 12.27 22 10.65 22 5.88 17.52 2 12 2zM7.83 13.41a.5.5 0 0 1-.5-.5V8.5a.5.5 0 0 1 1 0v3.91h2.67a.5.5 0 0 1 0 1h-3.17zm4.84 0a.5.5 0 0 1-.5-.5v-4.4a.5.5 0 0 1 1 0v4.4a.5.5 0 0 1-.5.5zm3.33 0a.5.5 0 0 1-.5-.5V8.5a.5.5 0 0 1 1 0v4.41a.5.5 0 0 1-.5.5zm3.34 0h-2.67a.5.5 0 0 1-.5-.5v-4.4a.5.5 0 0 1 .5-.5h2.67a.5.5 0 0 1 0 1h-2.17v1.17h1.83a.5.5 0 0 1 0 1h-1.83v1.23h2.17a.5.5 0 0 1 0 1z" fill="#00B900"/>
</svg>
