<?xml version="1.0" encoding="UTF-8"?>
<svg width="40" height="40" viewBox="0 0 40 40" fill="none" xmlns="http://www.w3.org/2000/svg">
  <circle cx="20" cy="20" r="20" fill="#00A352"/>
  <g transform="translate(10, 8)">
    <path d="M10 4C8.89543 4 8 4.89543 8 6C8 7.10457 8.89543 8 10 8C11.1046 8 12 7.10457 12 6C12 4.89543 11.1046 4 10 4Z" stroke="white" stroke-width="2"/>
    <path d="M4 12C4 10.8954 4.89543 10 6 10H14C15.1046 10 16 10.8954 16 12V20C16 22.2091 14.2091 24 12 24H8C5.79086 24 4 22.2091 4 20V12Z" stroke="white" stroke-width="2"/>
    <path d="M10 15V19" stroke="white" stroke-width="2" stroke-linecap="round"/>
    <path d="M7 17H13" stroke="white" stroke-width="2" stroke-linecap="round"/>
  </g>
</svg>
