<svg width="32" height="32" viewBox="0 0 32 32" xmlns="http://www.w3.org/2000/svg"><g fill="none"><circle cx="16" cy="16" r="16" fill="#213147"/><path d="M16.074 6.5a.838.838 0 0 0-.665.338l-7.219 9.584a.838.838 0 0 0 .665 1.338h1.45c.24 0 .465-.13.584-.338l5.234-7.005 5.234 7.005a.674.674 0 0 0 .584.338h1.45a.838.838 0 0 0 .665-1.338l-7.219-9.584a.838.838 0 0 0-.665-.338h-.098zm-.049 9.813a.838.838 0 0 0-.665.338l-3.61 4.792a.838.838 0 0 0 .666 1.338h1.449c.24 0 .465-.13.584-.338l2.617-3.503 2.617 3.503a.674.674 0 0 0 .584.338h1.45a.838.838 0 0 0 .665-1.338l-3.61-4.792a.838.838 0 0 0-.665-.338h-.098z" fill="#FFF"/></g></svg>
