<svg width="32" height="32" viewBox="0 0 32 32" xmlns="http://www.w3.org/2000/svg"><g fill="none"><circle cx="16" cy="16" r="16" fill="#8247E5"/><path d="M21.092 13.09c-.487-.277-1.117-.277-1.65 0l-2.557 1.503-1.744 1.014-2.557 1.503c-.487.278-1.117.278-1.65 0l-2.003-1.183c-.487-.278-.836-.835-.836-1.434V12.73c0-.557.349-1.114.836-1.392l1.96-1.142c.487-.278 1.117-.278 1.65 0l1.96 1.142c.487.278.836.835.836 1.434v1.503l1.744-1.014v-1.503c0-.557-.35-1.114-.836-1.392l-3.66-2.156c-.488-.278-1.117-.278-1.65 0L8.33 10.297c-.487.278-.836.835-.836 1.434v4.27c0 .557.349 1.114.836 1.392l3.703 2.156c.487.278 1.117.278 1.65 0l2.557-1.503 1.744-1.014 2.557-1.503c.487-.278 1.117-.278 1.65 0l1.96 1.142c.487.278.836.835.836 1.434v1.764c0 .557-.349 1.114-.836 1.392l-1.96 1.142c-.487.278-1.117.278-1.65 0l-1.96-1.142c-.487-.278-.836-.835-.836-1.434v-1.503l-1.744 1.014v1.503c0 .557.349 1.114.836 1.392l3.703 2.156c.487.278 1.117.278 1.65 0l3.703-2.156c.487-.278.836-.835.836-1.434v-4.27c0-.557-.349-1.114-.836-1.392l-3.747-2.156z" fill="#FFF"/></g></svg>
